<svg xmlns="http://www.w3.org/2000/svg" fill-rule="evenodd" stroke-linejoin="round" stroke-miterlimit="1.414" clip-rule="evenodd" viewBox="0 0 32 32"><path fill="none" d="M0 0h32v32H0z"  width="12" height="8"/><path d="M16.999 6.995v.999c-.018.886-1.451 1.391-1.904.423a1.053 1.053 0 0 1-.094-.423v-.999h-2.996c-.769-.037-1.284-1.042-.755-1.653.182-.21.329-.324.755-.345.998 0 1.997-.003 2.996-.009v-.989a.87.87 0 0 1 .05-.313c.132-.401.527-.686.969-.686.533.021.967.42.979.999v.977c1.997-.012 3.995-.023 5.993-.013v-.964c.01-.534.4-.976.979-.999h.039c.534.021.968.42.979.999v.982l1.073.017c1.531.048 2.893 1.365 2.922 2.959.038 6.017.038 12.035 0 18.053-.028 1.545-1.365 2.929-2.959 2.959-6.683.041-13.367.041-20.05 0-1.539-.029-2.929-1.339-2.959-2.959-.038-6.018-.038-12.036 0-18.053.028-1.556 1.361-2.949 2.993-2.96h1.002v-.998a.848.848 0 0 1 .05-.313c.132-.401.527-.686.968-.686.534.021.968.42.979.999v3.995c-.017.885-1.409 1.381-1.886.459a1.036 1.036 0 0 1-.111-.459V6.991a43.672 43.672 0 0 0-1.024.004c-.507.016-.958.46-.974.974a485.855 485.855 0 0 0 0 18.028c.016.508.46.958.974.974a539.08 539.08 0 0 0 20.026 0c.507-.016.958-.46.974-.974.111-6.008.111-12.02 0-18.028a1.035 1.035 0 0 0-1.002-.974h-.996v.999c-.017.877-1.413 1.372-1.886.459a1.05 1.05 0 0 1-.111-.459v-.999h-5.993Zm-8.99 15.981a1 1 0 1 1 0 1.999 1 1 0 0 1 0-1.999Zm3.996 0a1 1 0 1 1-.002 1.998 1 1 0 0 1 .002-1.998Zm3.995 0a1 1 0 0 1 0 1.998 1 1 0 0 1 0-1.998Zm-7.991-3.995a.999.999 0 1 1 0 1.997.999.999 0 0 1 0-1.997Zm3.996 0a.998.998 0 1 1 0 1.997.998.998 0 0 1 0-1.997Zm3.995 0a1 1 0 1 1 0 1.999 1 1 0 0 1 0-1.999Zm3.995 0a1 1 0 1 1 0 1.999 1 1 0 0 1 0-1.999Zm3.995 0a.999.999 0 1 1 0 1.997.999.999 0 0 1 0-1.997Zm-11.985-3.995a.998.998 0 1 1 0 1.996.998.998 0 0 1 0-1.996Zm3.995 0a1 1 0 1 1 0 1.998 1 1 0 0 1 0-1.998Zm3.995 0a1 1 0 1 1 0 1.998 1 1 0 0 1 0-1.998Zm3.995 0a.998.998 0 1 1 .001 1.997.998.998 0 0 1-.001-1.997Z"/></svg>