<svg xmlns="http://www.w3.org/2000/svg" width="30.822" height="30.822" viewBox="0 0 30.822 30.822">
  <g id="hamburger-menu" transform="translate(-30 -23.964)">
    <g id="Avatar" transform="translate(30 23.964)" fill="none">
      <path d="M15.411,0A15.411,15.411,0,1,1,0,15.411,15.411,15.411,0,0,1,15.411,0Z" stroke="none"/>
      <path d="M 15.41082382202148 1.000003814697266 C 11.56155395507812 1.000003814697266 7.942684173583984 2.498992919921875 5.220834732055664 5.220834732055664 C 2.498992919921875 7.942684173583984 1.000003814697266 11.56155395507812 1.000003814697266 15.41082382202148 C 1.000003814697266 19.26009368896484 2.498992919921875 22.87896347045898 5.220834732055664 25.60081481933594 C 7.942684173583984 28.32265472412109 11.56155395507812 29.8216438293457 15.41082382202148 29.8216438293457 C 19.26009368896484 29.8216438293457 22.87896347045898 28.32265472412109 25.60081481933594 25.60081481933594 C 28.32265472412109 22.87896347045898 29.8216438293457 19.26009368896484 29.8216438293457 15.41082382202148 C 29.8216438293457 11.56155395507812 28.32265472412109 7.942684173583984 25.60081481933594 5.220834732055664 C 22.87896347045898 2.498992919921875 19.26009368896484 1.000003814697266 15.41082382202148 1.000003814697266 M 15.41082382202148 3.814697265625e-06 C 23.92198371887207 3.814697265625e-06 30.8216438293457 6.899663925170898 30.8216438293457 15.41082382202148 C 30.8216438293457 23.92198371887207 23.92198371887207 30.8216438293457 15.41082382202148 30.8216438293457 C 6.899663925170898 30.8216438293457 3.814697265625e-06 23.92198371887207 3.814697265625e-06 15.41082382202148 C 3.814697265625e-06 6.899663925170898 6.899663925170898 3.814697265625e-06 15.41082382202148 3.814697265625e-06 Z" stroke="none" fill="#efefef"/>
    </g>
    <path id="bars" d="M3,8H13a1,1,0,0,0,0-2H3A1,1,0,0,0,3,8Zm10,8H3a1,1,0,0,0,0,2H13a1,1,0,0,0,0-2Zm-3-5H3a1,1,0,0,0,0,2h7a1,1,0,0,0,0-2Z" transform="translate(37 27)" fill="#222"/>
  </g>
</svg>
