
<svg width="15" height="27" viewBox="0 0 15 27" fill="none" xmlns="http://www.w3.org/2000/svg">
<path d="M7.12651 0.626148C6.94884 0.619699 6.77528 0.683578 6.63998 0.805235L0.417839 6.13905C0.254807 6.2797 0.151088 6.48265 0.129288 6.70364C0.107489 6.92463 0.16938 7.14575 0.301468 7.31881C0.366688 7.40106 0.446801 7.46879 0.537095 7.51805C0.627388 7.5673 0.726086 7.5971 0.827408 7.60569C0.928731 7.61428 1.03064 7.6015 1.12723 7.5681C1.22382 7.53469 1.31315 7.48133 1.38998 7.41112L6.3486 3.16474L6.3486 26.0582C6.3486 26.2759 6.43055 26.4846 6.57643 26.6385C6.72231 26.7924 6.92021 26.8789 7.12651 26.8789C7.33282 26.8789 7.53066 26.7924 7.67654 26.6385C7.82242 26.4846 7.90437 26.2759 7.90437 26.0582L7.90437 3.16474L12.8621 7.41112C12.9435 7.48313 13.0376 7.53741 13.139 7.57083C13.2404 7.60426 13.347 7.61616 13.4527 7.60586C13.5585 7.59556 13.6613 7.56326 13.7552 7.51082C13.849 7.45838 13.9321 7.38685 13.9996 7.30034C14.1064 7.11801 14.1487 6.90173 14.1189 6.68972C14.0891 6.47771 13.9892 6.28364 13.8369 6.14182L7.61475 0.808006C7.54931 0.744344 7.4723 0.69539 7.38836 0.664127C7.30442 0.632864 7.21533 0.619941 7.12651 0.626148Z" fill="black"/>
</svg>
