<svg width="175" height="66" viewBox="0 0 175 66" fill="none" xmlns="http://www.w3.org/2000/svg">
<path d="M1.83601 58.9109V57.2183H2.6837C3.30352 57.2183 3.56785 57.5453 3.56785 58.0646C3.56785 58.584 3.30352 58.9109 2.6837 58.9109H1.83601ZM5.15386 58.0646C5.15386 56.824 4.36997 55.8912 2.80219 55.8912H0.277344V62.6423H1.83601V60.2188H2.80219C4.43378 60.2188 5.15386 59.1802 5.15386 58.0646Z" fill="#D9373F"/>
<path d="M5.96531 62.6423H7.52397V59.7284C7.52397 58.9975 7.9068 58.5936 8.49927 58.5936C9.09175 58.5936 9.47458 58.9975 9.47458 59.7284V62.6423H11.0241V59.5072C11.0241 58.0646 10.2494 57.2183 9.09175 57.2183C8.38989 57.2183 7.83388 57.5357 7.52397 57.9973V55.5258H5.96531V62.6423Z" fill="#D9373F"/>
<path d="M11.7973 59.9496C11.7973 61.6422 12.7909 62.7193 14.0305 62.7193C14.787 62.7193 15.3248 62.3538 15.6074 61.8826V62.6423H17.1661V57.276H15.6074V58.0358C15.3339 57.5646 14.7962 57.1991 14.0396 57.1991C12.7909 57.1991 11.7973 58.257 11.7973 59.9496ZM15.6074 59.9592C15.6074 60.8151 15.0878 61.2863 14.4954 61.2863C13.912 61.2863 13.3833 60.8055 13.3833 59.9496C13.3833 59.0937 13.912 58.632 14.4954 58.632C15.0878 58.632 15.6074 59.1033 15.6074 59.9592Z" fill="#D9373F"/>
<path d="M19.8523 60.1515C19.8523 59.2283 20.2807 58.959 21.0191 58.959H21.4475V57.2183C20.7638 57.2183 20.2078 57.603 19.8523 58.1704V57.276H18.2937V62.6423H19.8523V60.1515Z" fill="#D9373F"/>
<path d="M29.2019 62.6423H30.7514V59.5072C30.7514 58.0646 29.9402 57.2183 28.6823 57.2183C27.944 57.2183 27.306 57.6511 26.9687 58.2185C26.6224 57.5742 26.0025 57.2183 25.2369 57.2183C24.5715 57.2183 24.0519 57.5165 23.7511 57.9492V57.276H22.1925V62.6423H23.7511V59.7284C23.7511 59.0263 24.134 58.6417 24.7264 58.6417C25.3189 58.6417 25.7017 59.0263 25.7017 59.7284V62.6423H27.2513V59.7284C27.2513 59.0263 27.6341 58.6417 28.2266 58.6417C28.8191 58.6417 29.2019 59.0263 29.2019 59.7284V62.6423Z" fill="#D9373F"/>
<path d="M31.5316 59.9496C31.5316 61.6422 32.5252 62.7193 33.7648 62.7193C34.5213 62.7193 35.0591 62.3538 35.3417 61.8826V62.6423H36.9004V57.276H35.3417V58.0358C35.0682 57.5646 34.5305 57.1991 33.7739 57.1991C32.5252 57.1991 31.5316 58.257 31.5316 59.9496ZM35.3417 59.9592C35.3417 60.8151 34.8221 61.2863 34.2297 61.2863C33.6463 61.2863 33.1176 60.8055 33.1176 59.9496C33.1176 59.0937 33.6463 58.632 34.2297 58.632C34.8221 58.632 35.3417 59.1033 35.3417 59.9592Z" fill="#D9373F"/>
<path d="M37.7181 59.9592C37.7181 61.6614 38.7754 62.7193 40.2703 62.7193C41.5464 62.7193 42.4487 61.9403 42.7131 60.6997H41.0542C40.9174 61.094 40.6713 61.3152 40.2429 61.3152C39.6869 61.3152 39.3041 60.8536 39.3041 59.9592C39.3041 59.0648 39.6869 58.6032 40.2429 58.6032C40.6713 58.6032 40.9265 58.8436 41.0542 59.2187H42.7131C42.4487 57.9396 41.5464 57.1991 40.2703 57.1991C38.7754 57.1991 37.7181 58.2666 37.7181 59.9592Z" fill="#D9373F"/>
<path d="M45.8894 60.6324L44.7135 57.276H42.9726L45.0417 62.4596L43.875 65.1908H45.5521L48.7424 57.276H47.0561L45.8894 60.6324Z" fill="#D9373F"/>
<path d="M55.7768 57.5261C55.8042 56.5932 55.157 55.7566 53.8536 55.7566C52.5775 55.7566 51.8574 56.5259 51.8574 57.478C51.8574 57.9108 51.9759 58.2762 52.304 58.6897C51.4199 59.1321 51.0006 59.8534 51.0006 60.6805C51.0006 61.9307 51.9394 62.7481 53.4252 62.7481C54.2638 62.7481 54.9565 62.5077 55.5399 62.0365L56.1323 62.6423H57.9462L56.4058 61.0459C56.6063 60.7285 56.7977 60.3727 56.9709 59.9688L57.4084 59.1321H55.8498L55.5125 59.738C55.4761 59.8342 55.4305 59.9207 55.394 60.0073L53.8354 58.4012C53.4981 58.0262 53.3249 57.7473 53.3249 57.4684C53.3249 57.1799 53.5437 56.9875 53.8354 56.9875C54.1088 56.9875 54.3184 57.1606 54.3093 57.5261H55.7768ZM53.4981 61.421C52.8783 61.421 52.5046 61.0363 52.5046 60.5651C52.5046 60.1804 52.7233 59.8438 53.1608 59.6034L54.5828 61.0555C54.2729 61.2959 53.9174 61.421 53.4981 61.421Z" fill="#D9373F"/>
<path d="M65.0902 60.6324C65.0902 58.3724 61.9273 58.9013 61.9273 57.728C61.9273 57.3049 62.2099 57.1029 62.5836 57.1126C63.0029 57.1222 63.2946 57.3818 63.3219 57.8146H65.0082C64.9444 56.5259 64.0055 55.795 62.6109 55.795C61.271 55.795 60.2775 56.5067 60.2775 57.7857C60.2593 60.1804 63.4586 59.5072 63.4586 60.7574C63.4586 61.1517 63.167 61.3921 62.7112 61.3921C62.2737 61.3921 61.9638 61.1421 61.9182 60.6228H60.2593C60.3049 61.9884 61.3804 62.7096 62.7568 62.7096C64.2516 62.7096 65.0902 61.7672 65.0902 60.6324Z" fill="#D9373F"/>
<path d="M66.2955 60.7766C66.2955 62.1711 67.0339 62.6423 68.0912 62.6423H68.8842V61.2479H68.3282C67.9818 61.2479 67.8542 61.1132 67.8542 60.7959V58.6417H68.8751V57.276H67.8542V55.9681H66.2955V57.276H65.6757V58.6417H66.2955V60.7766Z" fill="#D9373F"/>
<path d="M74.7292 59.9592C74.7292 58.257 73.5807 57.1991 72.0858 57.1991C70.6001 57.1991 69.4425 58.257 69.4425 59.9592C69.4425 61.6614 70.5727 62.7193 72.0676 62.7193C73.5625 62.7193 74.7292 61.6614 74.7292 59.9592ZM71.0285 59.9592C71.0285 59.0456 71.5207 58.6224 72.0858 58.6224C72.6327 58.6224 73.1432 59.0456 73.1432 59.9592C73.1432 60.8632 72.6236 61.2959 72.0676 61.2959C71.5025 61.2959 71.0285 60.8632 71.0285 59.9592Z" fill="#D9373F"/>
<path d="M77.1147 60.1515C77.1147 59.2283 77.5431 58.959 78.2815 58.959H78.7099V57.2183C78.0262 57.2183 77.4702 57.603 77.1147 58.1704V57.276H75.5561V62.6423H77.1147V60.1515Z" fill="#D9373F"/>
<path d="M81.6972 58.5166C82.2167 58.5166 82.6542 58.8532 82.6542 59.4399H80.7036C80.7948 58.8436 81.1867 58.5166 81.6972 58.5166ZM84.1309 60.8632H82.4719C82.3443 61.1517 82.0982 61.3825 81.6607 61.3825C81.1594 61.3825 80.7492 61.0555 80.6945 60.3535H84.222C84.2402 60.19 84.2493 60.0265 84.2493 59.8726C84.2493 58.2377 83.2011 57.1991 81.7154 57.1991C80.2023 57.1991 79.145 58.257 79.145 59.9592C79.145 61.6614 80.2205 62.7193 81.7154 62.7193C82.9824 62.7193 83.8848 61.9114 84.1309 60.8632Z" fill="#D9373F"/>
<path d="M89.2007 61.0844C89.1734 59.084 86.4206 59.6899 86.4206 58.834C86.4206 58.5743 86.6212 58.4205 86.9858 58.4205C87.4233 58.4205 87.6876 58.6609 87.7332 59.0263H89.1734C89.0731 57.9685 88.3439 57.1991 87.0313 57.1991C85.7006 57.1991 84.9622 57.9492 84.9622 58.8629C84.9622 60.8343 87.7332 60.2092 87.7332 61.0748C87.7332 61.3152 87.5236 61.5075 87.1225 61.5075C86.6941 61.5075 86.3751 61.2575 86.3386 60.8824H84.7982C84.8711 61.9211 85.7826 62.7193 87.1407 62.7193C88.4168 62.7193 89.2007 62.0172 89.2007 61.0844Z" fill="#D9373F"/>
<path d="M92.0859 55.8912V62.6423H95.6863V61.3729H93.6446V55.8912H92.0859Z" fill="#D9373F"/>
<path d="M96.6758 60.7766C96.6758 62.1711 97.4142 62.6423 98.4715 62.6423H99.2645V61.2479H98.7085C98.3621 61.2479 98.2345 61.1132 98.2345 60.7959V58.6417H99.2554V57.276H98.2345V55.9681H96.6758V57.276H96.056V58.6417H96.6758V60.7766Z" fill="#D9373F"/>
<path d="M99.8228 59.9496C99.8228 61.6422 100.816 62.7193 102.065 62.7193C102.813 62.7193 103.35 62.3634 103.633 61.873V62.6423H105.192V55.5258H103.633V58.0166C103.323 57.5261 102.74 57.1991 102.065 57.1991C100.816 57.1991 99.8228 58.257 99.8228 59.9496ZM103.633 59.9592C103.633 60.8151 103.113 61.2863 102.521 61.2863C101.937 61.2863 101.409 60.8055 101.409 59.9496C101.409 59.0937 101.937 58.632 102.521 58.632C103.113 58.632 103.633 59.1033 103.633 59.9592Z" fill="#D9373F"/>
<path d="M92.8839 3.87183H90.2125V1.05501C90.2125 0.775234 90.1071 0.506946 89.9195 0.309114C89.732 0.111282 89.4777 9.80297e-05 89.2125 0H85.1427C84.8775 9.80297e-05 84.6232 0.111282 84.4357 0.309114C84.2481 0.506946 84.1428 0.775234 84.1427 1.05501V3.87257H81.4727C81.2075 3.87267 80.9532 3.98386 80.7657 4.18169C80.5781 4.37952 80.4727 4.64781 80.4727 4.92758V9.22105C80.4727 9.50083 80.5781 9.76912 80.7657 9.96695C80.9532 10.1648 81.2075 10.276 81.4727 10.2761H84.1434V13.0938C84.1435 13.3736 84.2489 13.6419 84.4364 13.8397C84.6239 14.0375 84.8782 14.1487 85.1434 14.1488H89.2131C89.4782 14.1487 89.7326 14.0375 89.9201 13.8397C90.1076 13.6419 90.213 13.3736 90.2131 13.0938V10.2755H92.8839C93.1491 10.2754 93.4034 10.1642 93.591 9.9664C93.7785 9.76857 93.8839 9.50027 93.884 9.2205V4.92685C93.8839 4.64707 93.7785 4.37878 93.591 4.18094C93.4034 3.98311 93.1491 3.87193 92.8839 3.87183Z" fill="#D9373F"/>
<path d="M0.568471 20.258C0.74052 20.096 0.949827 19.9846 1.17549 19.9347C1.37498 19.8895 1.57848 19.867 1.78252 19.8676H5.11299C5.34872 19.8598 5.58274 19.9122 5.79521 20.0201C5.98207 20.1195 6.14739 20.2587 6.28076 20.4288C6.41438 20.6035 6.52163 20.799 6.59873 21.0082C6.67971 21.2277 6.75474 21.4474 6.82993 21.6791L7.29234 23.7222C7.54672 23.1873 7.86539 22.6892 8.24048 22.2402C8.68977 21.6923 9.2185 21.223 9.80703 20.8497C10.5125 20.3992 11.273 20.0525 12.0674 19.8191C13.0692 19.5312 14.1046 19.3936 15.1428 19.4104C15.9929 19.4014 16.841 19.4997 17.6691 19.7032C19.1076 20.0601 20.4206 20.8404 21.4553 21.9536C21.9955 22.5347 22.4832 23.1677 22.9121 23.8443C23.2571 23.281 23.6777 22.7736 24.1608 22.3378C24.7616 21.7746 25.4256 21.2912 26.1379 20.8985C26.9521 20.446 27.8107 20.0886 28.6984 19.8326C29.6753 19.5471 30.6849 19.4055 31.6986 19.4117C33.375 19.4117 34.8376 19.7513 36.0862 20.4303C37.3152 21.0947 38.3832 22.0481 39.2078 23.2168C40.0678 24.4557 40.6993 25.8543 41.0691 27.3396C41.4887 28.9797 41.6966 30.672 41.6872 32.3707V47.6116C41.6872 48.2034 41.5658 48.6486 41.323 48.9473C41.0802 49.2523 40.6928 49.3986 40.1661 49.3986H35.0745C34.4443 49.3986 34.0108 49.2887 33.7738 49.0631C33.5368 48.8375 33.4212 48.3983 33.4212 47.7459V32.3648C33.4273 31.7308 33.3255 31.1007 33.1205 30.5046C32.9359 29.9546 32.6555 29.4458 32.2939 29.0043C31.9396 28.5744 31.4994 28.2327 31.0048 28.004C30.4725 27.7598 29.8972 27.6372 29.3168 27.6442C28.7697 27.6416 28.2281 27.7601 27.7271 27.9918C27.2312 28.2202 26.7817 28.5474 26.4033 28.9555C26.0098 29.384 25.6995 29.8895 25.4899 30.4436C25.2551 31.0533 25.1391 31.7066 25.1488 32.3647V47.6055C25.1488 48.1973 25.0274 48.6425 24.7845 48.9411C24.5418 49.246 24.1544 49.3923 23.6276 49.3923H18.5295C17.8994 49.3923 17.4659 49.2824 17.2289 49.0568C16.9919 48.8312 16.8762 48.392 16.8762 47.7396V32.3587C16.8813 31.7268 16.7876 31.0983 16.5987 30.4985C16.4262 29.9505 16.1575 29.4416 15.8068 28.9982C15.4631 28.572 15.0349 28.2305 14.5524 27.9979C14.0451 27.7647 13.4982 27.6424 12.9449 27.6382C12.3915 27.634 11.843 27.7481 11.3326 27.9735C10.8242 28.1989 10.3597 28.5215 9.96251 28.925C9.5471 29.3517 9.20485 29.851 8.95092 30.4009C8.6743 30.9977 8.5134 31.6467 8.47765 32.3099V47.6667C8.47733 47.9382 8.42832 48.2072 8.33321 48.4595C8.25133 48.7015 8.1023 48.9119 7.90551 49.0633C7.73681 49.1754 7.55384 49.2617 7.36211 49.3194C7.17114 49.3689 6.97481 49.3914 6.77823 49.3865H1.79409C1.16393 49.3865 0.707298 49.2218 0.424032 48.8987C0.131739 48.5357 -0.01911 48.0693 0.00194038 47.5935V21.5709C1.07247e-05 21.2887 0.0634946 21.0103 0.186868 20.7599C0.304934 20.5188 0.485312 20.3179 0.707121 20.1805L0.568471 20.258Z" fill="#4A818A"/>
<path d="M76.743 47.6719C76.743 47.9305 76.6979 48.1868 76.6099 48.4281C76.5248 48.6635 76.371 48.8642 76.1707 49.0014C76.0162 49.169 75.8162 49.2819 75.5983 49.3246C75.4103 49.3678 75.2185 49.3903 75.026 49.3917H70.6789C70.4229 49.4011 70.1676 49.3576 69.9274 49.2636C69.7472 49.1862 69.5883 49.0625 69.465 48.9037C69.3385 48.7315 69.2372 48.5404 69.1644 48.3366C69.0834 48.1109 68.9968 47.867 68.9101 47.6046L68.621 46.5557C68.1964 46.9998 67.7424 47.4115 67.2625 47.7877C66.7371 48.2022 66.1758 48.5636 65.5861 48.8671C64.9566 49.1911 64.2982 49.4485 63.6205 49.6355C62.9111 49.8321 62.1805 49.9305 61.447 49.9282C60.1465 49.9342 58.8513 49.7538 57.5969 49.3919C55.1957 48.7018 53.0087 47.3579 51.2552 45.4948C50.3871 44.5716 49.6352 43.5345 49.018 42.4089C47.7258 40.0473 47.0515 37.3659 47.064 34.6391C47.0466 32.5745 47.4303 30.528 48.1913 28.6259C48.9118 26.8209 49.9516 25.1772 51.2552 23.7827C52.5611 22.3989 54.113 21.3005 55.822 20.5504C57.6024 19.7614 59.5158 19.361 61.4468 19.3733C62.3061 19.3674 63.1627 19.476 63.9962 19.6966C64.7474 19.9004 65.4731 20.1972 66.1582 20.5809C66.8016 20.944 67.3981 21.393 67.933 21.9166C68.455 22.422 68.9205 22.9888 69.3204 23.6059L69.962 21.4896C70.1064 21.0992 70.2279 20.7882 70.3262 20.5504C70.3974 20.3538 70.5011 20.1723 70.6326 20.0141C70.7451 19.8963 70.8878 19.8157 71.0431 19.7824C71.2679 19.7375 71.4965 19.7171 71.7252 19.7214H75.0145C75.2067 19.7258 75.3983 19.7483 75.5868 19.7885C75.8038 19.8337 76.0031 19.9463 76.1591 20.1117C76.3501 20.262 76.5013 20.4615 76.5984 20.6911C76.6894 20.9272 76.7347 21.1802 76.7314 21.4351V47.6719H76.743ZM55.0185 34.6391C55.011 35.6168 55.1635 36.5886 55.4693 37.5116C55.751 38.3657 56.1889 39.1531 56.7584 39.8291C57.3425 40.5097 58.0579 41.0507 58.8565 41.4157C59.6552 41.7807 60.5186 41.9613 61.3888 41.9453C62.331 41.9542 63.2652 41.7612 64.1347 41.3782C64.957 41.0137 65.7065 40.488 66.3433 39.8291C66.9751 39.1683 67.4745 38.3801 67.8117 37.5116C68.5208 35.6803 68.5208 33.6287 67.8117 31.7974C67.4682 30.9161 66.97 30.1112 66.3433 29.4249C65.7145 28.7389 64.964 28.1899 64.1347 27.8089C63.2693 27.4092 62.3334 27.2075 61.3888 27.2171C60.4866 27.2041 59.5934 27.4064 58.7758 27.8089C58.0039 28.1935 57.3167 28.7439 56.7582 29.4249C56.1908 30.1231 55.7534 30.928 55.4691 31.7974C55.1667 32.7107 55.0143 33.6717 55.0185 34.6391Z" fill="#4A818A"/>
<path d="M82.9341 21.6546C82.9242 21.1921 83.065 20.74 83.333 20.3738C83.5989 20.0201 84.0095 19.8375 84.5702 19.8375H89.6227C89.8195 19.8414 90.0138 19.8849 90.195 19.9657C90.4058 20.0518 90.5998 20.1779 90.7674 20.3378C90.9451 20.5006 91.0972 20.692 91.2182 20.9049C91.3452 21.1295 91.4093 21.3875 91.4031 21.6489V47.5929C91.4031 48.1847 91.2471 48.6296 90.9407 48.9285C90.6343 49.2334 90.1893 49.3797 89.6169 49.3797H84.5643C83.4775 49.3797 82.9341 48.7818 82.9341 47.5859V21.6546Z" fill="#4A818A"/>
<path d="M98.1898 20.258C98.3618 20.096 98.5711 19.9846 98.7968 19.9347C98.9963 19.8895 99.1998 19.867 99.4038 19.8676H102.734C102.97 19.8599 103.204 19.9122 103.416 20.0201C103.603 20.1195 103.769 20.2587 103.902 20.4288C104.035 20.6035 104.143 20.799 104.22 21.0082C104.301 21.2277 104.376 21.4474 104.451 21.6791L104.913 23.7222C105.168 23.1873 105.486 22.6892 105.862 22.2402C106.311 21.6923 106.84 21.223 107.428 20.8497C108.134 20.3992 108.894 20.0525 109.688 19.8191C110.69 19.5312 111.726 19.3936 112.764 19.4104C113.614 19.4015 114.462 19.4997 115.29 19.7032C116.729 20.0601 118.042 20.8404 119.076 21.9536C119.617 22.5347 120.104 23.1677 120.533 23.8443C120.878 23.2811 121.299 22.7736 121.782 22.3378C122.381 21.776 123.043 21.2927 123.753 20.8985C124.567 20.4455 125.426 20.0877 126.314 19.8313C127.291 19.5458 128.301 19.4042 129.314 19.4104C130.991 19.4104 132.453 19.75 133.702 20.429C134.931 21.0939 135.999 22.0476 136.823 23.2168C137.683 24.4557 138.315 25.8543 138.685 27.3396C139.104 28.9797 139.312 30.672 139.303 32.3707V47.6116C139.303 48.2034 139.182 48.6486 138.939 48.9473C138.696 49.2523 138.309 49.3986 137.782 49.3986H132.69C132.06 49.3986 131.626 49.2887 131.389 49.0631C131.152 48.8375 131.037 48.3983 131.037 47.7459V32.3648C131.043 31.7308 130.941 31.1007 130.736 30.5046C130.551 29.9546 130.271 29.4458 129.909 29.0043C129.555 28.5744 129.115 28.2327 128.62 28.004C128.088 27.7598 127.513 27.6372 126.932 27.6442C126.385 27.6416 125.844 27.7601 125.343 27.9918C124.847 28.2202 124.397 28.5474 124.019 28.9555C123.625 29.384 123.315 29.8895 123.105 30.4436C122.873 31.0542 122.757 31.7069 122.764 32.3647V47.6055C122.764 48.1973 122.643 48.6425 122.4 48.9411C122.157 49.246 121.77 49.3923 121.243 49.3923H116.145C115.515 49.3923 115.081 49.2824 114.844 49.0568C114.607 48.8312 114.492 48.392 114.492 47.7396V32.3587C114.497 31.7268 114.403 31.0983 114.214 30.4985C114.042 29.9505 113.773 29.4416 113.422 28.9982C113.079 28.572 112.65 28.2305 112.168 27.9979C111.661 27.7647 111.114 27.6424 110.56 27.6382C110.007 27.634 109.459 27.7481 108.948 27.9735C108.44 28.1989 107.975 28.5215 107.578 28.925C107.163 29.3531 106.819 29.8521 106.561 30.4009C106.285 30.9977 106.124 31.6467 106.088 32.3099V47.6667C106.088 47.9382 106.039 48.2072 105.943 48.4595C105.862 48.7015 105.713 48.9119 105.516 49.0633C105.349 49.1742 105.168 49.2604 104.978 49.3194C104.787 49.3689 104.591 49.3914 104.394 49.3865H99.4096C98.7794 49.3865 98.3228 49.2218 98.0395 48.8987C97.7492 48.5349 97.6004 48.0685 97.6234 47.5935V21.5709C97.6215 21.2887 97.685 21.0103 97.8083 20.7599C97.9281 20.52 98.1081 20.3196 98.3286 20.1805L98.1898 20.258Z" fill="#4A818A"/>
<path d="M174.359 47.6719C174.359 47.9304 174.314 48.1868 174.226 48.4281C174.141 48.6634 173.987 48.8642 173.787 49.0013C173.632 49.1689 173.432 49.2819 173.214 49.3246C173.026 49.3678 172.834 49.3903 172.642 49.3917H168.295C168.039 49.4011 167.784 49.3576 167.543 49.2636C167.363 49.1862 167.204 49.0625 167.081 48.9037C166.954 48.7327 166.855 48.5411 166.786 48.3365C166.705 48.1109 166.619 47.867 166.532 47.6046L166.243 46.5557C165.818 46.9998 165.364 47.4115 164.884 47.7877C164.359 48.2022 163.797 48.5636 163.208 48.8671C162.578 49.1911 161.92 49.4485 161.242 49.6354C160.533 49.8321 159.802 49.9305 159.069 49.9282C157.768 49.9346 156.473 49.7542 155.219 49.3919C152.817 48.7018 150.63 47.3579 148.877 45.4948C148.009 44.5716 147.257 43.5345 146.64 42.4089C146.01 41.2584 145.524 40.0263 145.194 38.7437C144.854 37.405 144.683 36.0245 144.686 34.6384C144.669 32.5738 145.052 30.5273 145.813 28.6251C146.534 26.8204 147.574 25.177 148.877 23.7827C150.184 22.4002 151.736 21.302 153.444 20.5504C155.224 19.7614 157.138 19.361 159.069 19.3733C159.928 19.3674 160.785 19.476 161.618 19.6966C162.369 19.9006 163.095 20.1977 163.78 20.5816C164.423 20.9448 165.02 21.3937 165.555 21.9173C166.077 22.4228 166.542 22.9896 166.942 23.6066L167.584 21.4896C167.728 21.0992 167.85 20.7882 167.948 20.5504C168.017 20.3527 168.121 20.1707 168.254 20.0141C168.367 19.8962 168.509 19.8157 168.665 19.7824C168.89 19.7375 169.118 19.7171 169.347 19.7214H172.63C172.823 19.7258 173.014 19.7483 173.203 19.7885C173.42 19.8337 173.619 19.9463 173.775 20.1117C173.966 20.262 174.117 20.4615 174.214 20.6911C174.305 20.9272 174.351 21.1802 174.347 21.4351V47.6719H174.359ZM152.634 34.6391C152.627 35.6168 152.78 36.5886 153.085 37.5115C153.367 38.3656 153.805 39.1531 154.374 39.829C154.959 40.5097 155.674 41.0507 156.473 41.4157C157.271 41.7807 158.135 41.9613 159.005 41.9453C159.947 41.9541 160.881 41.7612 161.751 41.3781C162.573 41.0136 163.323 40.488 163.959 39.829C164.593 39.1699 165.093 38.3813 165.428 37.5115C166.137 35.6803 166.137 33.6286 165.428 31.7974C165.084 30.9161 164.586 30.1112 163.959 29.4249C163.33 28.7389 162.58 28.1899 161.751 27.8089C160.885 27.4092 159.949 27.2075 159.005 27.2171C158.103 27.2041 157.209 27.4064 156.392 27.8089C155.619 28.1919 154.931 28.7426 154.374 29.4249C153.807 30.1231 153.369 30.928 153.085 31.7974C152.783 32.7107 152.63 33.6717 152.634 34.6391Z" fill="#4A818A"/>
<path d="M135.459 61.6938C137.237 61.6938 138.679 60.1731 138.679 58.2971C138.679 56.4212 137.237 54.9004 135.459 54.9004C133.681 54.9004 132.239 56.4212 132.239 58.2971C132.239 60.1731 133.681 61.6938 135.459 61.6938Z" fill="#7F3687"/>
<path d="M148.333 61.6938C150.111 61.6938 151.553 60.1731 151.553 58.2971C151.553 56.4212 150.111 54.9004 148.333 54.9004C146.555 54.9004 145.113 56.4212 145.113 58.2971C145.113 60.1731 146.555 61.6938 148.333 61.6938Z" fill="#F19634"/>
<path d="M160.288 61.6938C162.067 61.6938 163.508 60.1731 163.508 58.2971C163.508 56.4212 162.067 54.9004 160.288 54.9004C158.51 54.9004 157.068 56.4212 157.068 58.2971C157.068 60.1731 158.51 61.6938 160.288 61.6938Z" fill="#7AB64C"/>
<path d="M171.78 61.6938C173.559 61.6938 175 60.1731 175 58.2971C175 56.4212 173.559 54.9004 171.78 54.9004C170.002 54.9004 168.561 56.4212 168.561 58.2971C168.561 60.1731 170.002 61.6938 171.78 61.6938Z" fill="#38A7DC"/>
</svg>
